<?xml version="1.0" encoding="utf-8"?>
<!-- Generator: Adobe Illustrator 23.0.1, SVG Export Plug-In . SVG Version: 6.00 Build 0)  -->
<svg version="1.1" id="Layer_1" xmlns="http://www.w3.org/2000/svg" xmlns:xlink="http://www.w3.org/1999/xlink" x="0px" y="0px"
	 viewBox="0 0 836 279.4" style="enable-background:new 0 0 836 279.4;" xml:space="preserve">
<style type="text/css">
	.st0{fill:#FFFFFF;}
	.st1{fill:url(#SVGID_1_);}
	.st2{opacity:0.67;}
	.st3{fill:url(#SVGID_2_);}
	.st4{fill:url(#SVGID_3_);}
	.st5{fill:url(#SVGID_4_);}
	.st6{fill:url(#SVGID_5_);}
	.st7{fill:url(#SVGID_6_);}
	.st8{fill:url(#SVGID_7_);}
	.st9{fill:url(#SVGID_8_);}
	.st10{opacity:0.53;fill:url(#SVGID_9_);enable-background:new    ;}
	.st11{opacity:0.53;fill:url(#SVGID_10_);enable-background:new    ;}
	.st12{fill:url(#SVGID_11_);}
	.st13{fill:url(#SVGID_12_);}
	.st14{fill:url(#SVGID_13_);}
	.st15{fill:url(#SVGID_14_);}
</style>
<title>FF_Master_</title>
<g>
	<g id="Assets">
		<path class="st0" d="M336.3,83.2h74.9v20.3h-53.4v27.5h53.4V151h-53.4v44.2h-21.5V83.2z M436.7,75.3c7.4,0,12.4,5.4,12.4,12.6
			s-4.9,12.6-12.6,12.6c-7.4,0-12.4-5.2-12.4-12.3C424.1,80.6,429.8,75.3,436.7,75.3z M426,112.3h21.2v82.9H426V112.3z M508.6,135.3
			c-2.9-2.3-6.5-3.6-10.3-3.7c-8.6,0-13.5,5.5-13.5,17.6v45.9h-21v-82.8h20.1v12c4.3-9.4,10.9-12.7,19.8-12.7c5,0,9.9,1.5,14.1,4.3
			L508.6,135.3z M517.3,154.2c0-23.8,17.6-43.6,42.7-43.6s42.5,17.6,42.5,42.2v8.8H538c2.3,10.4,10.4,17.3,22.9,17.3
			c9.7,0,16.3-4.6,20.6-12.3l17.7,10.6c-8.8,12.9-21.2,19.6-38.8,19.6C533.5,196.8,517.4,178.9,517.3,154.2L517.3,154.2z
			 M538.3,144.8h43.6c-2.3-10.6-10.9-16.4-22.1-16.4C549.7,128.4,541.3,134.1,538.3,144.8L538.3,144.8z M607.7,112.3h14.9v-4.1
			c0-22.6,9.5-31.9,30.4-31.9h7.4v18.3h-6c-9.8,0-12,3.4-12,13.6v4.2h18v19h-17.5v63.8h-20.2v-63.8h-14.9V112.3z M664.3,153.8
			c0-23.8,18.1-43.1,43.3-43.1c23.8,0,43.1,19.3,43.1,43.1s-19.3,43.1-43.1,43.1c0,0,0,0-0.1,0C681.8,196.8,664.3,178,664.3,153.8
			L664.3,153.8z M730.3,153.8c0-13.2-9.8-23.5-22.7-23.5c-13,0-22.7,10.3-22.7,23.5s9.7,23.5,22.7,23.5
			C720.5,177.2,730.3,166.9,730.3,153.8L730.3,153.8z M779.4,152.8l-29.9-40.5h24.8l17.7,25.4l18.1-25.4h24.4l-30.4,40.4l31.9,42.5
			h-24.7l-19.8-27l-19.2,27h-24.7L779.4,152.8z"/>
		
			<radialGradient id="SVGID_1_" cx="-1008.0403" cy="983.97" r="317.73" fx="-996.6779" fy="983.97" gradientTransform="matrix(1 0 0 -1 1258.4399 1036.89)" gradientUnits="userSpaceOnUse">
			<stop  offset="0" style="stop-color:#FFF44F"/>
			<stop  offset="0.29" style="stop-color:#FF980E"/>
			<stop  offset="0.43" style="stop-color:#FF5D36"/>
			<stop  offset="0.53" style="stop-color:#FF3750"/>
			<stop  offset="0.75" style="stop-color:#F5156C"/>
			<stop  offset="0.76" style="stop-color:#F1136E"/>
			<stop  offset="0.88" style="stop-color:#DA057A"/>
			<stop  offset="0.95" style="stop-color:#D2007F"/>
		</radialGradient>
		<path class="st1" d="M251.8,54.8C226.5,21.6,187.1,0.8,145.6,0c-32.5-0.6-55,9.1-67.7,16.9c17-9.8,41.6-15.4,63.1-15.1
			C196.5,2.5,256,40.2,264.8,108c10.1,77.9-44.2,142.9-120.7,143.1C59.9,251.3,8.7,177,22.1,110.2c0.7-3.3,0.3-6.6,1.4-9.7
			c0.6-11.7,5.1-30.1,14.7-48.9c-9.7,5-22,20.8-28.1,35.5C1.3,108.2-1.8,133.4,1,157.5c0.2,1.8,0.4,3.6,0.6,5.4
			c13.1,76.3,85.5,127.6,161.8,114.5S291.1,191.9,278,115.6C274.2,93.5,265.3,72.7,251.8,54.8L251.8,54.8z"/>
		<g class="st2">
			
				<radialGradient id="SVGID_2_" cx="-1235.2003" cy="970.83" r="188.04" fx="-1228.473" fy="970.83" gradientTransform="matrix(1 0 0 -1 1258.4399 1036.89)" gradientUnits="userSpaceOnUse">
				<stop  offset="0" style="stop-color:#B5007F"/>
				<stop  offset="1" style="stop-color:#F5156C;stop-opacity:0"/>
			</radialGradient>
			<path class="st3" d="M251.8,54.8C226.5,21.6,187.1,0.8,145.6,0c-32.5-0.6-55,9.1-67.7,16.9c17-9.8,41.6-15.4,63.1-15.1
				C196.5,2.5,256,40.2,264.8,108c10.1,77.9-44.2,142.9-120.7,143.1C59.9,251.3,8.7,177,22.1,110.2c0.7-3.3,0.3-6.6,1.4-9.7
				c0.6-11.7,5.1-30.1,14.7-48.9c-9.7,5-22,20.8-28.1,35.5C1.3,108.2-1.8,133.4,1,157.5c0.2,1.8,0.4,3.6,0.6,5.4
				c13.1,76.3,85.5,127.6,161.8,114.5S291.1,191.9,278,115.6C274.2,93.5,265.3,72.7,251.8,54.8L251.8,54.8z"/>
		</g>
		
			<radialGradient id="SVGID_3_" cx="-980.8802" cy="1002.05" r="373.1" fx="-967.5367" fy="995.4539" gradientTransform="matrix(1 0 0 -1 1258.4399 1036.89)" gradientUnits="userSpaceOnUse">
			<stop  offset="0" style="stop-color:#FFDD00;stop-opacity:0.6"/>
			<stop  offset="9.000000e-02" style="stop-color:#FFD702;stop-opacity:0.58"/>
			<stop  offset="0.2" style="stop-color:#FEC606;stop-opacity:0.52"/>
			<stop  offset="0.32" style="stop-color:#FDA90E;stop-opacity:0.43"/>
			<stop  offset="0.45" style="stop-color:#FC8119;stop-opacity:0.3"/>
			<stop  offset="0.57" style="stop-color:#FA4E27;stop-opacity:0.14"/>
			<stop  offset="0.66" style="stop-color:#F92433;stop-opacity:0"/>
		</radialGradient>
		<path class="st4" d="M251.8,54.8C226.5,21.6,187.1,0.8,145.6,0c-32.5-0.6-55,9.1-67.7,16.9c17-9.8,41.6-15.4,63.1-15.1
			C196.5,2.5,256,40.2,264.8,108c10.1,77.9-44.2,142.9-120.7,143.1C59.9,251.3,8.7,177,22.1,110.2c0.7-3.3,0.3-6.6,1.4-9.7
			c0.6-11.7,5.1-30.1,14.7-48.9c-9.7,5-22,20.8-28.1,35.5C1.3,108.2-1.8,133.4,1,157.5c0.2,1.8,0.4,3.6,0.6,5.4
			c13.1,76.3,85.5,127.6,161.8,114.5S291.1,191.9,278,115.6C274.2,93.5,265.3,72.7,251.8,54.8L251.8,54.8z"/>
		
			<radialGradient id="SVGID_4_" cx="148.0397" cy="348.58" r="481.33" gradientTransform="matrix(1 0 0 -1 0 504)" gradientUnits="userSpaceOnUse">
			<stop  offset="0.15" style="stop-color:#960E18"/>
			<stop  offset="0.18" style="stop-color:#B11927;stop-opacity:0.74"/>
			<stop  offset="0.22" style="stop-color:#DB293D;stop-opacity:0.34"/>
			<stop  offset="0.26" style="stop-color:#F5334B;stop-opacity:9.000000e-02"/>
			<stop  offset="0.27" style="stop-color:#FF3750;stop-opacity:0"/>
		</radialGradient>
		<path class="st5" d="M251.8,54.8C226.5,21.6,187.1,0.8,145.6,0c-32.5-0.6-55,9.1-67.7,16.9c17-9.8,41.6-15.4,63.1-15.1
			C196.5,2.5,256,40.2,264.8,108c10.1,77.9-44.2,142.9-120.7,143.1C59.9,251.3,8.7,177,22.1,110.2c0.7-3.3,0.3-6.6,1.4-9.7
			c0.6-11.7,5.1-30.1,14.7-48.9c-9.7,5-22,20.8-28.1,35.5C1.3,108.2-1.8,133.4,1,157.5c0.2,1.8,0.4,3.6,0.6,5.4
			c13.1,76.3,85.5,127.6,161.8,114.5S291.1,191.9,278,115.6C274.2,93.5,265.3,72.7,251.8,54.8L251.8,54.8z"/>
		
			<radialGradient id="SVGID_5_" cx="111.6097" cy="354.63" r="481.33" gradientTransform="matrix(1 0 0 -1 0 504)" gradientUnits="userSpaceOnUse">
			<stop  offset="0.11" style="stop-color:#960E18"/>
			<stop  offset="0.15" style="stop-color:#B11927;stop-opacity:0.74"/>
			<stop  offset="0.21" style="stop-color:#DB293D;stop-opacity:0.34"/>
			<stop  offset="0.26" style="stop-color:#F5334B;stop-opacity:9.000000e-02"/>
			<stop  offset="0.28" style="stop-color:#FF3750;stop-opacity:0"/>
		</radialGradient>
		<path class="st6" d="M251.8,54.8C226.5,21.6,187.1,0.8,145.6,0c-32.5-0.6-55,9.1-67.7,16.9c17-9.8,41.6-15.4,63.1-15.1
			C196.5,2.5,256,40.2,264.8,108c10.1,77.9-44.2,142.9-120.7,143.1C59.9,251.3,8.7,177,22.1,110.2c0.7-3.3,0.3-6.6,1.4-9.7
			c0.6-11.7,5.1-30.1,14.7-48.9c-9.7,5-22,20.8-28.1,35.5C1.3,108.2-1.8,133.4,1,157.5c0.2,1.8,0.4,3.6,0.6,5.4
			c13.1,76.3,85.5,127.6,161.8,114.5S291.1,191.9,278,115.6C274.2,93.5,265.3,72.7,251.8,54.8L251.8,54.8z"/>
		
			<linearGradient id="SVGID_6_" gradientUnits="userSpaceOnUse" x1="-1097.9734" y1="1009.7498" x2="-1015.6234" y2="867.0997" gradientTransform="matrix(1 0 0 -1 1258.4399 1036.89)">
			<stop  offset="0" style="stop-color:#FFBC04"/>
			<stop  offset="0.17" style="stop-color:#FFAB02;stop-opacity:0.62"/>
			<stop  offset="0.34" style="stop-color:#FF9B01;stop-opacity:0.29"/>
			<stop  offset="0.45" style="stop-color:#FF9200;stop-opacity:8.000000e-02"/>
			<stop  offset="0.51" style="stop-color:#FF8E00;stop-opacity:0"/>
		</linearGradient>
		<path class="st7" d="M264.8,108c1.1,8.4,1.5,16.9,1,25.3c4.6-0.7,9.3-1.3,14-1.9c-1.5-27.8-11.2-54.5-28-76.6
			C226.6,21.6,187.1,0.8,145.6,0c-32.5-0.6-55,9.1-67.7,16.9c17-9.8,41.6-15.4,63.1-15.1C196.5,2.5,256,40.2,264.8,108z"/>
		
			<radialGradient id="SVGID_7_" cx="-1095.2419" cy="594.4975" r="311.02" fx="-1084.1143" fy="594.4975" gradientTransform="matrix(0.96 0 0 -0.96 1294.0599 612.94)" gradientUnits="userSpaceOnUse">
			<stop  offset="0" style="stop-color:#FF980E"/>
			<stop  offset="0.3" style="stop-color:#FF7139"/>
			<stop  offset="0.48" style="stop-color:#FF5B51"/>
			<stop  offset="0.63" style="stop-color:#FF4F5E"/>
			<stop  offset="0.74" style="stop-color:#FF4055"/>
			<stop  offset="0.84" style="stop-color:#FF3750"/>
		</radialGradient>
		<path class="st8" d="M268.2,104.1C260.3,33.2,197,1.3,141,1.8C119.5,2,94.9,7.1,77.9,17c-4.5,2.7-8.7,5.8-12.5,9.4
			c0.4-0.4,1.8-1.5,4-3l0.2-0.2l0.2-0.1c8.3-5.6,17.4-9.8,27-12.5c14.8-4.3,30.8-5.8,46.1-5.4c63.2,3.6,107.8,56,109.4,111.7
			c1.3,46.1-36.5,82.9-80.1,85c-31.7,1.5-61.6-13.8-76.2-44.4c-3.4-7-5.7-14.4-6.9-22.1c-6.9-46.6,24.5-86.4,53.2-96.2
			C126.8,25.7,87.9,26.6,59,47.9c-20.9,15.3-34.4,38.6-38.9,66.3c-3.4,21.2-0.2,43.2,8.2,62.9c18.2,42.8,58.9,71.7,105.3,74.9
			c3.5,0.3,7,0.4,10.4,0.4C236.7,252.3,276.9,182.2,268.2,104.1z"/>
		
			<radialGradient id="SVGID_8_" cx="-1095.2419" cy="594.4975" r="311.02" fx="-1084.1143" fy="594.4975" gradientTransform="matrix(0.96 0 0 -0.96 1294.0599 612.94)" gradientUnits="userSpaceOnUse">
			<stop  offset="8.000000e-02" style="stop-color:#FFDE08"/>
			<stop  offset="0.15" style="stop-color:#FFDB08;stop-opacity:0.97"/>
			<stop  offset="0.25" style="stop-color:#FFD209;stop-opacity:0.88"/>
			<stop  offset="0.37" style="stop-color:#FFC40B;stop-opacity:0.73"/>
			<stop  offset="0.51" style="stop-color:#FFB00D;stop-opacity:0.53"/>
			<stop  offset="0.67" style="stop-color:#FF970F;stop-opacity:0.28"/>
			<stop  offset="0.82" style="stop-color:#FF7B12;stop-opacity:0"/>
		</radialGradient>
		<path class="st9" d="M268.2,104.1C260.3,33.2,197,1.3,141,1.8C119.5,2,94.9,7.1,77.9,17c-4.5,2.7-8.7,5.8-12.5,9.4
			c0.4-0.4,1.8-1.5,4-3l0.2-0.2l0.2-0.1c8.3-5.6,17.4-9.8,27-12.5c14.8-4.3,30.8-5.8,46.1-5.4c63.2,3.6,107.8,56,109.4,111.7
			c1.3,46.1-36.5,82.9-80.1,85c-31.7,1.5-61.6-13.8-76.2-44.4c-3.4-7-5.7-14.4-6.9-22.1c-6.9-46.6,24.5-86.4,53.2-96.2
			C126.8,25.7,87.9,26.6,59,47.9c-20.9,15.3-34.4,38.6-38.9,66.3c-3.4,21.2-0.2,43.2,8.2,62.9c18.2,42.8,58.9,71.7,105.3,74.9
			c3.5,0.3,7,0.4,10.4,0.4C236.7,252.3,276.9,182.2,268.2,104.1z"/>
		
			<radialGradient id="SVGID_9_" cx="358.3893" cy="-82.1151" r="146.26" gradientTransform="matrix(0.25 0.97 1.01 -0.26 169.26 -233.24)" gradientUnits="userSpaceOnUse">
			<stop  offset="0.36" style="stop-color:#FF3750"/>
			<stop  offset="0.44" style="stop-color:#FF4D47;stop-opacity:0.63"/>
			<stop  offset="0.55" style="stop-color:#FF673D;stop-opacity:0.18"/>
			<stop  offset="0.59" style="stop-color:#FF7139;stop-opacity:0"/>
		</radialGradient>
		<path class="st10" d="M268.2,104.1C260.3,33.2,197,1.3,141,1.8C119.5,2,94.9,7.1,77.9,17c-4.5,2.7-8.7,5.8-12.5,9.4
			c0.4-0.4,1.8-1.5,4-3l0.2-0.2l0.2-0.1c8.3-5.6,17.4-9.8,27-12.5c14.8-4.3,30.8-5.8,46.1-5.4c63.2,3.6,107.8,56,109.4,111.7
			c1.3,46.1-36.5,82.9-80.1,85c-31.7,1.5-61.6-13.8-76.2-44.4c-3.4-7-5.7-14.4-6.9-22.1c-6.9-46.6,24.5-86.4,53.2-96.2
			C126.8,25.7,87.9,26.6,59,47.9c-20.9,15.3-34.4,38.6-38.9,66.3c-3.4,21.2-0.2,43.2,8.2,62.9c18.2,42.8,58.9,71.7,105.3,74.9
			c3.5,0.3,7,0.4,10.4,0.4C236.7,252.3,276.9,182.2,268.2,104.1z"/>
		
			<radialGradient id="SVGID_10_" cx="149.6197" cy="356.65" r="146.26" gradientTransform="matrix(1 0 0 -1 0 503.22)" gradientUnits="userSpaceOnUse">
			<stop  offset="0.22" style="stop-color:#FF3750;stop-opacity:0.8"/>
			<stop  offset="0.27" style="stop-color:#FF444B;stop-opacity:0.63"/>
			<stop  offset="0.41" style="stop-color:#FF643E;stop-opacity:0.18"/>
			<stop  offset="0.47" style="stop-color:#FF7139;stop-opacity:0"/>
		</radialGradient>
		<path class="st11" d="M268.2,104.1C260.3,33.2,197,1.3,141,1.8C119.5,2,94.9,7.1,77.9,17c-4.5,2.7-8.7,5.8-12.5,9.4
			c0.4-0.4,1.8-1.5,4-3l0.2-0.2l0.2-0.1c8.3-5.6,17.4-9.8,27-12.5c14.8-4.3,30.8-5.8,46.1-5.4c63.2,3.6,107.8,56,109.4,111.7
			c1.3,46.1-36.5,82.9-80.1,85c-31.7,1.5-61.6-13.8-76.2-44.4c-3.4-7-5.7-14.4-6.9-22.1c-6.9-46.6,24.5-86.4,53.2-96.2
			C126.8,25.7,87.9,26.6,59,47.9c-20.9,15.3-34.4,38.6-38.9,66.3c-3.4,21.2-0.2,43.2,8.2,62.9c18.2,42.8,58.9,71.7,105.3,74.9
			c3.5,0.3,7,0.4,10.4,0.4C236.7,252.3,276.9,182.2,268.2,104.1z"/>
		
			<radialGradient id="SVGID_11_" cx="-1033.172" cy="629.6375" r="525.68" gradientTransform="matrix(0.96 0 0 -0.96 1294.0599 612.94)" gradientUnits="userSpaceOnUse">
			<stop  offset="5.000000e-02" style="stop-color:#FFF44F"/>
			<stop  offset="0.46" style="stop-color:#FF980E"/>
			<stop  offset="0.52" style="stop-color:#FF8424"/>
			<stop  offset="0.59" style="stop-color:#FF7634"/>
			<stop  offset="0.64" style="stop-color:#FF7139"/>
		</radialGradient>
		<path class="st12" d="M172.2,202c59.9-3.6,85.5-53.1,87.1-88.1C261.8,59,229.2-0.1,143,5.3c-15.4-0.4-31.4,1.1-46.1,5.4
			c-9.5,2.8-18.6,7-26.9,12.5l-0.2,0.1l-0.2,0.2c-1.3,0.9-2.6,1.9-3.9,2.9C68,24.7,97.7,7.2,139,12.6c49.5,6.5,94.7,44.9,94.7,95.6
			c0,39-30.2,68.8-65.6,66.6c-52.6-3.2-65.8-56.9-38.5-80.1c-7.4-1.6-21.2,1.5-30.9,15.9c-8.7,12.9-8.2,32.9-2.8,47
			C110.6,188.2,140.5,203.9,172.2,202z"/>
		
			<linearGradient id="SVGID_12_" gradientUnits="userSpaceOnUse" x1="206.6053" y1="479.3526" x2="63.7053" y2="231.8526" gradientTransform="matrix(1 0 0 -1 0 504)">
			<stop  offset="0" style="stop-color:#FFF44F;stop-opacity:0.8"/>
			<stop  offset="9.000000e-02" style="stop-color:#FFF44F;stop-opacity:0.7"/>
			<stop  offset="0.75" style="stop-color:#FFF44F;stop-opacity:0"/>
		</linearGradient>
		<path class="st13" d="M251.8,54.8c-3.7-4.9-7.8-9.5-12.2-13.9c-3.5-3.7-7.2-7.1-11.1-10.2c2.3,2,4.4,4.1,6.5,6.2
			c7.7,8.2,13.5,17.9,17.1,28.4c7.3,22.1,6.8,49.8-7.1,71.5c-16.6,25.9-43.7,38.7-73,38c-1.3,0-2.5,0-3.8-0.1
			c-52.6-3.2-65.8-56.9-38.5-80.1c-7.4-1.6-21.2,1.5-30.9,15.9c-8.7,12.9-8.2,32.9-2.8,47c-3.4-7-5.7-14.4-6.9-22.1
			c-6.9-46.6,24.5-86.4,53.2-96.2C126.8,25.7,87.9,26.6,59,47.8c-16.9,12.4-28.9,30-35.3,51c0.9-11.8,5.4-29.4,14.6-47.3
			c-9.7,5-22,20.8-28.1,35.5C1.3,108.1-1.8,133.4,1,157.4c0.2,1.8,0.4,3.6,0.6,5.4c13.1,76.3,85.5,127.6,161.9,114.5
			S291.1,191.8,278,115.5C274.2,93.5,265.3,72.7,251.8,54.8L251.8,54.8z"/>
		
			<linearGradient id="SVGID_13_" gradientUnits="userSpaceOnUse" x1="-1097.3152" y1="861.2" x2="-1097.3152" y2="1035.11" gradientTransform="matrix(1 0 0 -1 1258.4399 1036.89)">
			<stop  offset="0" style="stop-color:#3A8EE6"/>
			<stop  offset="0.24" style="stop-color:#5C79F0"/>
			<stop  offset="0.63" style="stop-color:#9059FF"/>
			<stop  offset="1" style="stop-color:#C139E6"/>
		</linearGradient>
		<path class="st14" d="M252.1,65.4c-3.6-10.6-9.4-20.3-17-28.4c-8.9-9.6-20.1-17-31.8-22.7c-10-4.9-20.5-8.6-31.3-11.1
			c-19.1-4.2-38.9-4.3-58-0.3C94,7.1,76.5,15.6,65.5,26.4c8.3-5,19.9-9.1,28.1-11.2C131.8,5.6,174,16,202.7,43.5
			c5.8,5.5,10.9,11.7,15.1,18.5c17.1,27.8,15.5,62.7,2.1,83.3c-9.9,15.3-31.2,29.7-51,29.5c30.4,1.6,58.8-11.2,76-38
			C258.9,115.1,259.4,87.5,252.1,65.4z"/>
		
			<linearGradient id="SVGID_14_" gradientUnits="userSpaceOnUse" x1="-1161.3052" y1="1035.9252" x2="-1020.1952" y2="894.8051" gradientTransform="matrix(1 0 0 -1 1258.4399 1036.89)">
			<stop  offset="0.81" style="stop-color:#9059FF;stop-opacity:0"/>
			<stop  offset="1" style="stop-color:#6E008B;stop-opacity:0.5"/>
		</linearGradient>
		<path class="st15" d="M252.1,65.4c-3.6-10.6-9.4-20.3-17-28.4c-8.9-9.6-20.1-17-31.8-22.7c-10-4.9-20.5-8.6-31.3-11.1
			c-19.1-4.2-38.9-4.3-58-0.3C94,7.1,76.5,15.6,65.5,26.4c8.3-5,19.9-9.1,28.1-11.2C131.8,5.6,174,16,202.7,43.5
			c5.8,5.5,10.9,11.7,15.1,18.5c17.1,27.8,15.5,62.7,2.1,83.3c-9.9,15.3-31.2,29.7-51,29.5c30.4,1.6,58.8-11.2,76-38
			C258.9,115.1,259.4,87.5,252.1,65.4z"/>
	</g>
</g>
</svg>
