<?xml version="1.0" encoding="UTF-8"?>
<svg width="306px" height="93px" viewBox="0 0 306 93" version="1.1" xmlns="http://www.w3.org/2000/svg" xmlns:xlink="http://www.w3.org/1999/xlink">
    <!-- Generator: Sketch 54.1 (76490) - https://sketchapp.com -->
    <title>Logos/mozilla-black</title>
    <desc>Created with Sketch.</desc>
    <defs>
        <filter x="-2.0%" y="-1.7%" width="104.0%" height="103.4%" filterUnits="objectBoundingBox" id="filter-1">
            <feOffset dx="2" dy="2" in="SourceAlpha" result="shadowOffsetOuter1"></feOffset>
            <feGaussianBlur stdDeviation="2" in="shadowOffsetOuter1" result="shadowBlurOuter1"></feGaussianBlur>
            <feColorMatrix values="0 0 0 0 0   0 0 0 0 0   0 0 0 0 0  0 0 0 0.1 0" type="matrix" in="shadowBlurOuter1" result="shadowMatrixOuter1"></feColorMatrix>
            <feMerge>
                <feMergeNode in="shadowMatrixOuter1"></feMergeNode>
                <feMergeNode in="SourceGraphic"></feMergeNode>
            </feMerge>
        </filter>
    </defs>
    <g id="Screens" stroke="none" stroke-width="1" fill="none" fill-rule="evenodd">
        <g id="01a-home" transform="translate(-686.000000, -380.000000)">
            <g id="Group-Copy" filter="url(#filter-1)" transform="translate(655.000000, 348.000000)">
                <g id="Logos/mozilla-black" transform="translate(33.000000, 34.000000)">
                    <g id="color/white" transform="translate(0.000000, 0.000000)" fill="#FFFFFF">
                        <rect id="Rectangle" x="0" y="0" width="298" height="85"></rect>
                    </g>
                    <path d="M86.6164835,67.5244755 L71.001998,67.5244755 L71.001998,46.5865385 C71.001998,40.1520979 68.8585415,37.6853147 64.6460539,37.6853147 C59.5255744,37.6853147 57.4565435,41.3111888 57.4565435,46.5122378 L57.4565435,59.4405594 L62.4132867,59.4405594 L62.4132867,67.5244755 L46.8136863,67.5244755 L46.8136863,46.5865385 C46.8136863,40.1520979 44.6702298,37.6853147 40.4577423,37.6853147 C35.3372627,37.6853147 33.2682318,41.3111888 33.2682318,46.5122378 L33.2682318,59.4405594 L40.3684316,59.4405594 L40.3684316,67.5244755 L17.6686314,67.5244755 L17.6686314,59.4405594 L22.6253746,59.4405594 L22.6253746,38.4134615 L17.6686314,38.4134615 L17.6686314,30.3295455 L33.2682318,30.3295455 L33.2682318,35.9318182 C35.500999,31.979021 39.386014,29.5865385 44.5809191,29.5865385 C49.9544456,29.5865385 54.8963037,32.1424825 56.7271728,37.5812937 C58.7962038,32.6328671 63.0086913,29.5865385 68.8734266,29.5865385 C75.5568432,29.5865385 81.6746254,33.6284965 81.6746254,42.4405594 L81.6746254,59.4405594 L86.6313686,59.4405594 L86.6313686,67.5244755 L86.6164835,67.5244755 Z" id="Path" fill="#000000"></path>
                    <path d="M110.655944,68.3417832 C99.1795205,68.3417832 91.2457542,61.3426573 91.2457542,49.4694056 C91.2457542,38.5917832 97.8547453,29.6013986 111.236464,29.6013986 C124.618182,29.6013986 131.137862,38.5769231 131.137862,48.9641608 C131.137862,60.8374126 122.549151,68.3417832 110.655944,68.3417832 Z M111.072727,37.7596154 C105.624775,37.7596154 102.230969,41.8015734 102.230969,48.8006993 C102.230969,55.2351399 105.207992,60.1835664 110.983417,60.1835664 C116.520679,60.1835664 120.152647,55.7255245 120.152647,48.6372378 C120.152647,41.1328671 116.103896,37.7596154 111.072727,37.7596154 Z" id="Combined-Shape" fill="#000000"></path>
                    <polygon id="Path" fill="#000000" points="170.717383 67.5244755 138.178521 67.5244755 137.106793 61.9222028 157.588711 38.4283217 145.948551 38.4283217 144.296304 44.1940559 136.615584 43.3618881 137.94036 30.3295455 170.642957 30.3295455 171.476523 35.9318182 150.815984 59.4405594 162.872927 59.4405594 164.614486 53.6748252 173.039461 54.4921329"></polygon>
                    <polygon id="Path" fill="#000000" points="191.973327 67.5244755 180.824376 67.5244755 180.824376 54.1652098 191.973327 54.1652098"></polygon>
                    <polygon id="Path" fill="#000000" points="191.973327 43.6888112 180.824376 43.6888112 180.824376 30.3295455 191.973327 30.3295455"></polygon>
                    <polygon id="Path" fill="#000000" points="198.93956 67.5244755 215.045255 10.8033217 225.539261 10.8033217 209.433566 67.5244755"></polygon>
                    <polygon id="Path" fill="#000000" points="220.582517 67.5244755 236.673327 10.8033217 247.167333 10.8033217 231.061638 67.5244755"></polygon>
                    <path d="M277.741359,68.3417832 C272.784615,68.3417832 270.060639,65.4589161 269.569431,60.9265734 C267.425974,64.7159091 263.63027,68.3417832 257.601798,68.3417832 C252.228272,68.3417832 246.125375,65.4589161 246.125375,57.7019231 C246.125375,48.5480769 254.967133,46.4082168 263.466533,46.4082168 C265.535564,46.4082168 267.679021,46.4973776 269.584316,46.7351399 L269.584316,45.5017483 C269.584316,41.7124126 269.495005,37.1800699 263.466533,37.1800699 C261.233766,37.1800699 259.507093,37.3435315 257.765534,38.25 L256.55984,42.4405594 L248.06044,41.5340909 L249.519181,32.9746503 C256.038861,30.3295455 259.343357,29.6013986 265.461139,29.6013986 C273.469331,29.6013986 280.242058,33.7176573 280.242058,42.2176573 L280.242058,58.3706294 C280.242058,60.5104895 281.075624,61.2534965 282.802298,61.2534965 C283.293506,61.2534965 283.7996,61.1643357 284.365235,61.0008741 L284.454545,66.6031469 C282.445055,67.6879371 280.048551,68.3417832 277.741359,68.3417832 Z M257.095704,56.4685315 C257.095704,58.861014 258.256743,60.7631119 261.471928,60.7631119 C265.267632,60.7631119 269.316384,58.0437063 269.569431,51.8618881 C267.842757,51.6092657 265.937463,51.3715035 264.195904,51.3715035 C260.4002,51.3566434 257.095704,52.4265734 257.095704,56.4685315 Z" id="Combined-Shape" fill="#000000"></path>
                </g>
            </g>
        </g>
    </g>
</svg>