<?xml version="1.0" encoding="UTF-8"?>
<svg width="100px" height="16px" viewBox="0 0 100 16" version="1.1" xmlns="http://www.w3.org/2000/svg" xmlns:xlink="http://www.w3.org/1999/xlink">
    <!-- Generator: Sketch 55.2 (78181) - https://sketchapp.com -->
    <title>Combined Shape</title>
    <desc>Created with Sketch.</desc>
    <defs>
        <linearGradient x1="0%" y1="50%" x2="100%" y2="48.7150336%" id="linearGradient-1">
            <stop stop-color="#6173FF" offset="0%"></stop>
            <stop stop-color="#F10366" offset="50.0512555%"></stop>
            <stop stop-color="#FF9100" offset="100%"></stop>
        </linearGradient>
    </defs>
    <g id="Assets" stroke="none" stroke-width="1" fill="none" fill-rule="evenodd">
        <path d="M14.4171701,9.86290061 L14.3821644,14.6088037 C14.3811624,14.744663 14.3494794,14.8784158 14.2896244,14.9994697 C14.0766894,15.4301199 13.5652964,15.601346 13.1473974,15.3819135 L0.65730842,8.82355539 C0.49358542,8.73758758 0.36133542,8.59921645 0.28041042,8.42921219 C0.0738544203,7.9952757 0.24776742,7.47094281 0.66885042,7.25808197 L13.2542444,0.896139276 C13.3726094,0.836305076 13.5028694,0.805692576 13.6347054,0.806724776 C14.1037134,0.810398876 14.4810294,1.20518438 14.4774895,1.68850288 L14.4374924,7.10768363 L14.4322506,7.81834595 C21.3971151,8.22084214 26.803373,8.11394491 30.6376284,7.50224887 C32.8563494,7.14828633 34.4127436,6.49896854 37.6798773,4.77953663 L37.8370435,4.69682505 C43.5116216,1.71101134 46.6698696,0.91763224 52.0800307,2.17612655 C56.8032019,3.27481549 61.0826497,4.55858451 65.4708953,6.12870191 C67.6110041,6.89443437 78.5018412,11.2078555 81.3569931,12.1065739 C84.8583954,13.208713 87.9898993,13.8120371 91.3035747,13.9588486 C92.6526711,13.9588486 93.2036452,13.7086956 93.3968794,13.2817148 C93.5884965,12.8583072 93.5885733,12.3164026 93.4294715,10.6072506 C93.2146133,8.29913505 93.2415795,7.0010228 93.7419227,5.45607073 C94.4261044,3.343465 95.9528528,1.5705962 98.5198898,0.126629649 C99.0031028,-0.145179241 99.6103235,0.0350056604 99.876155,0.52908389 C100.141987,1.02316212 99.9657641,1.6440363 99.4825511,1.91584519 C97.3407876,3.12059405 96.1569059,4.49532409 95.6378659,6.09800782 C95.2500711,7.29543478 95.2276895,8.37285082 95.4176736,10.4137559 C95.6179825,12.565576 95.6178874,13.2367245 95.2094184,14.1392998 C94.6298849,15.4198686 93.3500387,16.0009437 91.2606237,16 C87.7223114,15.8442448 84.4251008,15.2089952 80.7693757,14.0582798 C77.8327975,13.1339308 66.8911451,8.80038375 64.811237,8.05619113 C60.4910122,6.51041162 56.2831536,5.24811828 51.6369883,4.16734221 C46.784124,3.03848446 44.0464849,3.72620296 38.7508985,6.51260123 L38.5938803,6.59523493 C35.1448282,8.41040712 33.4387364,9.12217776 30.9455169,9.51993229 C26.972833,10.1537124 21.4678119,10.2665165 14.4171701,9.86290061 Z" id="Combined-Shape" fill="url(#linearGradient-1)" fill-rule="nonzero"></path>
    </g>
</svg>