<?xml version="1.0" encoding="UTF-8"?>
<svg width="76px" height="134px" viewBox="0 0 76 134" version="1.1" xmlns="http://www.w3.org/2000/svg" xmlns:xlink="http://www.w3.org/1999/xlink">
    <!-- Generator: Sketch 55.1 (78136) - https://sketchapp.com -->
    <title>zap-path-down</title>
    <desc>Created with Sketch.</desc>
    <defs>
        <linearGradient x1="63.2744549%" y1="0%" x2="36.7255451%" y2="100%" id="linearGradient-1">
            <stop stop-color="#FF9100" offset="0%"></stop>
            <stop stop-color="#F10366" offset="49.9487445%"></stop>
            <stop stop-color="#6173FF" offset="100%"></stop>
        </linearGradient>
    </defs>
    <g id="Page-1" stroke="none" stroke-width="1" fill="none" fill-rule="evenodd">
        <g id="zap-path-down" transform="translate(38.000000, 67.000000) scale(-1, 1) rotate(-180.000000) translate(-38.000000, -67.000000) " fill="url(#linearGradient-1)" fill-rule="nonzero">
            <path d="M6.27393615,119.771396 C6.23072956,116.863207 6.18010984,114.040851 6.08711873,109.153338 C5.70823476,89.2396577 5.66122938,81.3260492 6.04026217,71.5376651 C6.53949688,58.6450689 7.83957096,48.214692 10.2562561,39.2727416 C15.9189908,18.320118 27.9253669,5.48949241 48.9832609,0.242051079 C51.1698173,-0.302819469 52.583836,0.042122132 52.8459763,1.58411751 C52.985629,2.40559623 52.9303145,2.60323204 52.0570866,5.17225658 C51.7694667,6.01842897 51.5957454,6.60693521 51.4782,7.18391983 C51.0247666,9.40965016 51.6068347,10.658779 53.9671941,11.3851276 C57.4200306,12.4476623 64.1255165,12.0509283 74.7323815,9.84651958 C75.2983092,9.72890355 75.855341,10.0787487 75.9765458,10.6279198 C76.0977506,11.1770908 75.7372308,11.7176293 75.171303,11.8352444 C54.872531,16.0539064 47.9676094,13.929069 49.4221112,6.78948411 C49.5601752,6.11178453 49.7541941,5.45451878 50.0666848,4.53517652 C50.6544338,2.80602665 50.7996563,2.33136166 50.7898403,2.03046963 C50.5470303,2.00922736 50.1160972,2.0595706 49.5045589,2.21195993 C29.2259838,7.26520262 17.7626956,19.5154562 12.2835758,39.7886871 C8.0200431,55.5641381 7.44587119,70.3919583 8.18264261,109.115794 C8.27583282,114.013751 8.3265039,116.839491 8.36980585,119.755937 L13.7889866,119.715965 C14.2723051,119.7124 14.6670906,120.089716 14.6707647,120.558724 C14.6717969,120.69056 14.6411844,120.82082 14.5813502,120.939185 L8.21940751,133.524579 C8.00654667,133.945662 7.48221378,134.119575 7.04827729,133.913019 C6.87827303,133.832094 6.7399019,133.699844 6.65393409,133.536121 L0.0955759264,121.046032 C-0.12385655,120.628133 0.0473696104,120.11674 0.478019757,119.903805 C0.599073664,119.84395 0.732826516,119.812267 0.868685729,119.811265 L6.27393615,119.771396 Z" id="Path-6"></path>
        </g>
    </g>
</svg>