<?xml version="1.0" encoding="UTF-8"?>
<svg width="100px" height="17px" viewBox="0 0 100 17" version="1.1" xmlns="http://www.w3.org/2000/svg" xmlns:xlink="http://www.w3.org/1999/xlink">
    <!-- Generator: Sketch 55.2 (78181) - https://sketchapp.com -->
    <title>Combined Shape</title>
    <desc>Created with Sketch.</desc>
    <defs>
        <linearGradient x1="100%" y1="48.8759953%" x2="0%" y2="50%" id="linearGradient-1">
            <stop stop-color="#FF9100" offset="0%"></stop>
            <stop stop-color="#F10366" offset="49.9487445%"></stop>
            <stop stop-color="#6173FF" offset="100%"></stop>
        </linearGradient>
    </defs>
    <g id="Assets" stroke="none" stroke-width="1" fill="none" fill-rule="evenodd">
        <path d="M13.7578149,10.2102155 L13.7545607,10.2347203 L13.0738083,15.3611348 C13.013068,15.8183389 12.593208,16.1397587 12.1360005,16.0790428 C12.0074811,16.0619753 11.8847002,16.0152204 11.7773824,15.9424798 L0.366640601,8.2082424 C-0.0151403433,7.94946738 -0.114861284,7.43018933 0.14391146,7.04840301 C0.245294627,6.89883019 0.392455545,6.78617367 0.563305769,6.72734389 L13.5971368,2.23929519 C14.0332285,2.08913205 14.5084825,2.3209234 14.6586456,2.75701508 C14.7008561,2.87959862 14.7139457,3.01032657 14.6968781,3.13884597 L14.0213826,8.22548767 C25.2637098,9.18807336 36.2875217,9.1658309 47.0934069,8.159109 C54.2226216,7.49492124 56.8577614,6.40927037 56.9392964,5.31347621 C56.9592212,5.04569469 56.8610569,4.72211022 56.579333,4.10151329 C55.8564939,2.50920304 55.7330121,1.96701475 56.4990291,1.11346869 C57.2344375,0.294028713 58.7648903,0.000267710895 61.6487737,0.000267710895 C66.1589593,0.000267710895 69.1092357,1.08879116 73.2564264,3.65401588 C73.1855831,3.61019613 74.6119601,4.49917763 74.9983163,4.73343782 C77.7923576,6.42755511 79.6903347,7.09529818 82.2757787,7.0001486 C85.7237171,7.0001486 87.5759629,6.32630346 90.0839216,4.54382532 C89.9089548,4.66817924 91.8630385,3.24847489 92.4672758,2.841886 C94.2585557,1.63654068 96.0192549,0.75628961 98.2768804,0.0463253523 C98.8037282,-0.119354528 99.3651329,0.173429933 99.5308127,0.70027775 C99.6964926,1.22712557 99.4037082,1.78853019 98.8768603,1.95421007 C96.8130941,2.60321067 95.2232038,3.39806682 93.583822,4.50120045 C93.0148598,4.88405297 91.0943995,6.27932876 91.2425551,6.17403037 C88.4156535,8.1831903 86.1700225,9.0001486 82.3128209,8.9994623 C79.302252,9.11105703 77.059084,8.32186951 73.9613731,6.44362755 C73.5626392,6.20186234 72.1238315,5.30513344 72.2043351,5.35492855 C68.3447346,2.96759133 65.7229518,2.00026771 61.6487737,2.00026771 C59.4268874,2.00026771 58.2728817,2.20699254 58.0121373,2.42570944 L58.0267317,2.39367768 C58.03701,2.37941284 58.0431876,2.37925638 58.0508572,2.41293243 C58.088281,2.57725415 58.1356296,2.6913916 58.40047,3.27479686 C58.8163582,4.19093846 58.9865955,4.75210084 58.9337828,5.46188033 C58.7441938,8.00987396 55.3804136,9.39571727 47.2789319,10.1504855 C36.3234676,11.1711429 25.149564,11.1909356 13.7578149,10.2102155 Z" id="Combined-Shape" fill="url(#linearGradient-1)" fill-rule="nonzero"></path>
    </g>
</svg>