<?xml version="1.0" encoding="UTF-8"?>
<svg width="77px" height="125px" viewBox="0 0 77 125" version="1.1" xmlns="http://www.w3.org/2000/svg" xmlns:xlink="http://www.w3.org/1999/xlink">
    <!-- Generator: Sketch 55.2 (78181) - https://sketchapp.com -->
    <title>Combined Shape</title>
    <desc>Created with Sketch.</desc>
    <defs>
        <linearGradient x1="34.5518403%" y1="0%" x2="69.0675028%" y2="100%" id="linearGradient-1">
            <stop stop-color="#6173FF" offset="0%"></stop>
            <stop stop-color="#F10366" offset="50.0512555%"></stop>
            <stop stop-color="#FF9100" offset="100%"></stop>
        </linearGradient>
    </defs>
    <g id="Assets" stroke="none" stroke-width="1" fill="none" fill-rule="evenodd">
        <path d="M6.13597181,14.2275863 L0.868685729,14.1887349 C0.732826516,14.1877329 0.599073664,14.1560499 0.478019757,14.0961949 C0.0473696104,13.8832599 -0.12385655,13.3718669 0.0955759264,12.9539679 L6.65393409,0.463878935 C6.7399019,0.300155935 6.87827303,0.167905935 7.04827729,0.0869809345 C7.48221378,-0.119575065 8.00654667,0.0543379345 8.21940751,0.475420935 L14.5813502,13.0608149 C14.6411844,13.1791799 14.6717969,13.3094399 14.6707647,13.4412759 C14.6670906,13.9102839 14.2723051,14.2875999 13.7889866,14.28406 L8.36980585,14.2440629 L8.1366691,14.2423433 C8.37730498,26.1589639 9.81464061,39.001343 12.4499209,52.7689666 C14.165364,61.7310397 16.5699532,67.7377139 19.8397002,72.4319935 C20.6647016,73.6164237 21.5233835,74.6956648 22.5857749,75.9176527 C22.9875188,76.379748 24.7520631,78.3487331 25.2050018,78.8752954 C27.2599569,81.2642765 28.449511,83.1762871 29.2494032,85.7205317 C30.1800078,88.6805377 29.049228,92.7400442 26.2428657,98.5562111 C25.7524271,99.572642 25.2161933,100.633281 24.5650885,101.884268 C24.2808257,102.43043 22.5758912,105.662221 22.1324501,106.524423 C21.2968946,108.149031 20.7323021,109.338806 20.3474345,110.316241 C19.9365615,111.359721 19.7597867,112.10769 19.8024722,112.508505 C19.8098782,112.578048 19.801107,112.601286 19.8257685,112.607478 C34.4969095,106.839361 53.3848422,110.27496 76.4770832,122.810454 C76.9624631,123.07394 77.1423439,123.681016 76.8788581,124.166396 C76.6153723,124.651776 76.0082967,124.831656 75.5229167,124.568171 C52.8123578,112.23987 34.4408495,108.929782 20.3957619,114.532869 L20.21733,114.604051 L20.0252235,114.604051 C18.7726294,114.604051 17.9392108,113.898673 17.8137182,112.720301 C17.7277623,111.913179 17.9658595,110.905744 18.4864992,109.583493 C18.9013456,108.529922 19.4902689,107.288874 20.3538936,105.60969 C20.8031168,104.736246 22.5112293,101.498431 22.7909985,100.960902 C23.4335083,99.726429 23.9610923,98.6828987 24.4415876,97.6870753 C27.0253164,92.3323148 28.0617699,88.6114401 27.3414742,86.3203709 C26.6349415,84.073078 25.5816713,82.380121 23.6887667,80.1795314 C23.2524993,79.6723501 21.4927003,77.7086602 21.0764374,77.2298647 C19.9705123,75.9578033 19.0688888,74.8245907 18.1985721,73.5751026 C14.760929,68.6397796 12.2516765,62.371656 10.4855823,53.1449634 C7.82595813,39.2501591 6.37567165,26.277872 6.13597181,14.2275863 Z" id="Combined-Shape" fill="url(#linearGradient-1)" fill-rule="nonzero"></path>
    </g>
</svg>