<?xml version="1.0" encoding="UTF-8"?>
<svg width="73px" height="132px" viewBox="0 0 73 132" version="1.1" xmlns="http://www.w3.org/2000/svg" xmlns:xlink="http://www.w3.org/1999/xlink">
    <!-- Generator: Sketch 54.1 (76490) - https://sketchapp.com -->
    <title>Path 6</title>
    <desc>Created with Sketch.</desc>
    <defs>
        <linearGradient x1="62.5%" y1="0%" x2="37.5%" y2="100%" id="linearGradient-1">
            <stop stop-color="#FF9100" offset="0%"></stop>
            <stop stop-color="#F10366" offset="49.9487445%"></stop>
            <stop stop-color="#6173FF" offset="100%"></stop>
        </linearGradient>
    </defs>
    <g id="Screens" stroke="none" stroke-width="1" fill="none" fill-rule="evenodd">
        <g id="03a-Firefox-lnner-Page" transform="translate(-642.000000, -870.000000)" fill="url(#linearGradient-1)" fill-rule="nonzero">
            <path id="Path-6" d="M648.463933,987.785811 C648.422703,984.925987 648.374399,982.150569 648.285662,977.344338 C647.924111,957.761835 647.879256,949.979835 648.240949,940.354238 C648.717345,927.676054 649.957944,917.419141 652.264072,908.625901 C657.667751,888.021733 669.124866,875.404489 689.219415,870.244316 C691.305942,869.708507 692.655273,870.047712 692.905421,871.564063 C693.038685,872.37188 692.985901,872.566229 692.152621,875.092529 C691.878159,875.924629 691.712385,876.503348 691.600217,877.070737 C691.167527,879.259452 691.722967,880.487807 693.975346,881.202076 C697.270224,882.24694 703.668951,881.856804 713.790579,879.689056 C714.330617,879.573396 714.862166,879.917423 714.977826,880.457461 C715.093486,880.997499 714.749459,881.529048 714.209421,881.644707 C694.839266,885.79321 688.250227,883.70371 689.638189,876.682861 C689.769937,876.016432 689.95508,875.370097 690.253275,874.466044 C690.814136,872.765651 690.952715,872.29888 690.943348,872.002992 C690.711646,871.982103 690.300427,872.031609 689.716865,872.181464 C670.365983,877.150668 659.427111,889.197192 654.198647,909.133266 C650.13016,924.646361 649.582255,939.227585 650.285321,977.307418 C650.374248,982.123919 650.422601,984.902665 650.463922,987.770609 L655.635189,987.731302 C656.096397,987.727796 656.473122,988.098837 656.476628,988.560045 C656.477613,988.689689 656.448401,988.817782 656.391304,988.934179 L650.320404,1001.31027 C650.117281,1001.72435 649.616935,1001.89537 649.20285,1001.69225 C649.040623,1001.61267 648.908582,1001.48262 648.826547,1001.32162 L642.568217,989.039249 C642.358823,988.6283 642.522216,988.125412 642.933165,987.916018 C643.048681,987.857158 643.176315,987.826002 643.305959,987.825017 L648.463933,987.785811 Z"></path>
        </g>
    </g>
</svg>