<?xml version="1.0" encoding="UTF-8"?>
<svg width="100px" height="16px" viewBox="0 0 100 16" version="1.1" xmlns="http://www.w3.org/2000/svg" xmlns:xlink="http://www.w3.org/1999/xlink">
    <!-- Generator: Sketch 55.2 (78181) - https://sketchapp.com -->
    <title>Combined Shape</title>
    <desc>Created with Sketch.</desc>
    <defs>
        <linearGradient x1="0%" y1="50%" x2="100%" y2="48.8413401%" id="linearGradient-1">
            <stop stop-color="#FF9100" offset="0%"></stop>
            <stop stop-color="#F10366" offset="49.9487445%"></stop>
            <stop stop-color="#6173FF" offset="100%"></stop>
        </linearGradient>
    </defs>
    <g id="Assets" stroke="none" stroke-width="1" fill="none" fill-rule="evenodd">
        <path d="M14.4391871,6.87744924 C19.8694933,7.09424214 25.5165337,8.57179306 31.3761411,11.3025671 C37.0888468,13.96488 51.9796969,14.5722841 57.5995152,13.426658 C56.9676161,13.1375575 56.0423581,12.8056307 53.4311468,11.885592 C51.7332807,11.2873629 50.6908709,10.8925334 49.7764244,10.4786298 C48.3945204,9.85314201 47.5648832,9.2999688 47.2127364,8.57353544 C46.6111232,7.3324854 47.4519652,6.40537908 49.0649395,5.82827047 C52.184083,4.71226715 54.3291235,4.74581283 63.1124635,5.54441637 C70.0278588,6.17318164 74.4971662,6.30430902 79.9920511,5.77593504 C86.7701732,5.12416827 92.9784472,3.55906916 98.6203505,1.08232107 C99.122211,0.862008552 99.7038321,1.09913007 99.9194377,1.6119468 C100.135043,2.12476354 99.9029878,2.71908223 99.4011274,2.93939475 C93.5647772,5.50150333 87.1556988,7.11722502 80.1773697,7.78824318 C74.5367093,8.33063456 69.9626038,8.19643245 62.9371523,7.5576606 C54.5128205,6.791699 52.4478708,6.75940583 49.7186229,7.73590775 C49.5352606,7.80151326 49.3831925,7.86514814 49.2626161,7.92320208 C49.5300014,8.10790833 49.9786399,8.35954444 50.5775259,8.63061669 C51.4252551,9.01432223 52.4292117,9.39458696 54.0759388,9.97479766 C57.7231696,11.2598693 58.179293,11.4301831 59.102107,11.9307041 C59.9944407,12.414693 60.4852253,12.8709082 60.462792,13.6533996 C60.4368766,14.5573503 59.7693491,14.971575 58.6213556,15.2641401 C53.0842551,16.6752647 36.9119673,16.1039338 30.5553489,13.141536 C24.943373,10.5261665 19.5677252,9.11471243 14.4242746,8.89970483 L14.4220334,9.20355333 L14.3821644,14.6088037 C14.3811624,14.744663 14.3494794,14.8784158 14.2896244,14.9994697 C14.0766894,15.4301199 13.5652964,15.601346 13.1473974,15.3819135 L0.65730842,8.82355539 C0.49358542,8.73758758 0.36133542,8.59921645 0.28041042,8.42921219 C0.0738544203,7.9952757 0.24776742,7.47094281 0.66885042,7.25808197 L13.2542444,0.896139276 C13.3726094,0.836305076 13.5028694,0.805692576 13.6347054,0.806724776 C14.1037134,0.810398876 14.4810294,1.20518438 14.4774895,1.68850288 L14.4391917,6.87744943 Z" id="Combined-Shape" fill="url(#linearGradient-1)" fill-rule="nonzero"></path>
    </g>
</svg>