<?xml version="1.0" encoding="UTF-8"?>
<svg width="77px" height="125px" viewBox="0 0 77 125" version="1.1" xmlns="http://www.w3.org/2000/svg" xmlns:xlink="http://www.w3.org/1999/xlink">
    <!-- Generator: Sketch 55.2 (78181) - https://sketchapp.com -->
    <title>Combined Shape Copy</title>
    <desc>Created with Sketch.</desc>
    <defs>
        <linearGradient x1="30.9549164%" y1="0%" x2="69.0450836%" y2="100%" id="linearGradient-1">
            <stop stop-color="#FF9100" offset="0%"></stop>
            <stop stop-color="#F10366" offset="49.9487445%"></stop>
            <stop stop-color="#6173FF" offset="100%"></stop>
        </linearGradient>
    </defs>
    <g id="Assets" stroke="none" stroke-width="1" fill="none" fill-rule="evenodd">
        <path d="M5.78928454,14.0836177 L0.80928652,13.6984513 C0.67382815,13.6879747 0.542611207,13.6470388 0.426027455,13.5788853 C0.0112799454,13.3364283 -0.123856144,12.8143369 0.124192966,12.4127628 L7.53783986,0.410586926 C7.635019,0.253259558 7.78227836,0.130983995 7.95751354,0.0621150216 C8.4048016,-0.113667939 8.91572568,0.0963970311 9.09869474,0.531302716 L14.5672274,13.529826 C14.6186591,13.6520765 14.6401105,13.7841546 14.6298844,13.9155975 C14.5935029,14.3832067 14.1733589,14.7320647 13.6914646,14.6948188 L8.2882748,14.2768963 L7.78407344,14.2379 C6.36938796,28.9261367 6.52184892,39.6294782 8.22712421,46.3121758 C8.82904303,48.6709981 9.6261508,49.505392 10.6332312,49.4330935 C11.6547176,49.3597608 13.0686813,48.4720816 14.8991865,46.7995955 C15.49269,46.2573264 16.1102103,45.6545528 16.8938091,44.8613094 C17.1959185,44.5554816 18.2899987,43.437488 18.1968561,43.5324281 C18.713142,43.0061785 19.0906332,42.6272897 19.4511666,42.2762774 C20.3921036,41.3601892 21.1211669,40.7331654 21.7723895,40.312472 C23.7994477,39.0029811 25.4018911,39.795392 25.6503474,42.4969093 C26.1428912,47.8524398 24.8292988,51.63287 18.8245321,65.1954835 C16.233335,71.0480678 14.8085455,74.6350961 13.7073596,78.4209071 C12.6529117,82.0460357 12.1065726,85.3303054 12.1065726,88.4038688 C12.1065726,114.494882 33.1353303,125.704212 75.8488566,121.964888 C76.3990371,121.916723 76.884092,122.323687 76.9322572,122.873867 C76.9804223,123.424048 76.5734585,123.909103 76.023278,123.957268 C32.297478,127.785211 10.1065726,115.956401 10.1065726,88.4038688 C10.1065726,85.1233758 10.6832354,81.6568179 11.7869498,77.862314 C12.9198604,73.9674353 14.37054,70.3152267 16.9957567,64.385804 C22.8149375,51.2423626 24.1048133,47.5301871 23.6587525,42.6800747 C23.5472753,41.4679607 23.6165014,41.5021931 22.8576445,41.9924189 C21.9500009,42.5787617 22.2085512,42.3270393 18.316646,46.2668467 C17.5111184,47.0822888 16.8713936,47.7067367 16.2482334,48.2761024 C14.1012162,50.2377774 12.389907,51.3121286 10.7764431,51.4279595 C8.61834574,51.5828898 7.10331904,49.996995 6.28922309,46.8066849 C4.51865736,39.8681246 4.35680002,28.9723803 5.78928454,14.0836177 Z" id="Combined-Shape-Copy" fill="url(#linearGradient-1)" fill-rule="nonzero" transform="translate(38.468064, 62.329535) scale(-1, 1) rotate(180.000000) translate(-38.468064, -62.329535) "></path>
    </g>
</svg>